<?xml version="1.0" standalone="no"?>
<!DOCTYPE svg PUBLIC "-//W3C//DTD SVG 20010904//EN"
 "http://www.w3.org/TR/2001/REC-SVG-20010904/DTD/svg10.dtd">
<svg version="1" xmlns="http://www.w3.org/2000/svg"
 width="270pt" height="270pt" viewBox="0 0 270 270"
 preserveAspectRatio="xMidYMid meet">

<g transform="matrix(0.1,0,0,-0.1,0,270)"
fill="#000000" stroke="none">
<path transform="matrix(2,0,0,1.7,-1102.4,-757.3)" d="M 1189 2010.9 c -21 -23 -44 -56 -52 -75 c -19 -45 -17 -139 4 -194 l 18 -45 l 69 0 l 69 0 l 18 45 c 38 99 14 213 -60 283 l -29 28 l -37 -42 z"/>
<path transform="matrix(2,0,0,1.7,-788.4,-726.7)" d="M 692.1 1892.6 c -11 -41 -8 -104 9 -152 c 17 -50 76 -124 116 -146 c 23 -12 29 -10 71 22 c 25 19 51 37 57 39 c 7 2 6 14 -5 35 c -9 18 -20 55 -24 82 c -4 28 -14 57 -20 65 c -19 23 -110 65 -157 72 c -37 5 -42 4 -47 -17 z"/>
<path transform="matrix(2,0,0,1.7,-1398.3,-727.9)" d="M 1666.7 1900.3 c -98 -31 -128 -60 -139 -135 c -4 -24 -14 -57 -23 -74 c -11 -23 -12 -32 -4 -35 c 7 -2 32 -19 57 -38 c 24 -19 48 -34 52 -34 c 18 0 94 74 117 115 c 28 47 41 124 31 179 c -8 41 -22 44 -91 22 z"/>
<path transform="matrix(2,0,0,1.7,-580.9,-674.4)" d="M 412.7 1629.4 c -40 -9 -43 -12 -37 -36 c 10 -40 43 -89 79 -116 c 35 -27 131 -55 186 -55 c 32 0 37 4 52 42 c 10 23 17 42 15 43 c -54 34 -102 76 -118 102 c -20 31 -23 33 -77 32 c -31 -1 -76 -6 -100 -12 z"/>
<path transform="matrix(2,0,0,1.7,-1607.1,-674.4)" d="M 1853.7 1603.4 c -14 -21 -45 -51 -69 -66 l -44 -28 l 15 -43 c 15 -41 19 -44 51 -44 c 59 0 153 29 190 59 c 32 26 79 101 80 128 c 0 14 -84 33 -149 33 c -45 0 -50 -3 -74 -39 z"/>
<path transform="matrix(2,0,0,1.7,-1103,-616.3)" d="M 1137.3 1518.8 c -93 -42 -152 -162 -125 -253 c 44 -151 197 -219 324 -145 c 124 73 151 230 59 338 c -44 52 -102 79 -167 79 c -27 0 -68 -9 -91 -19 z"/>
<path transform="matrix(2,0,0,1.7,-512.9,-608.4)" d="M 371.6 1339 c -57 -27 -110 -78 -102 -99 c 6 -17 94 -76 124 -83 c 16 -5 33 2 57 24 c 31 27 87 50 159 66 c 24 6 27 11 27 46 l 0 40 l -43 0 c -24 0 -66 7 -93 15 c -64 19 -70 19 -129 -9 z"/>
<path transform="matrix(2,0,0,1.7,-1673.2,-608.6)" d="M 1971 1352.1 c -13 -5 -54 -13 -90 -17 l -66 -7 l -3 -37 c -3 -39 -3 -39 68 -53 c 44 -9 105 -40 131 -66 c 14 -14 28 -19 43 -15 c 30 7 117 66 123 83 c 8 20 -42 69 -101 98 c -54 27 -68 29 -105 14 z"/>
<path transform="matrix(2,0,0,1.7,-620.6,-555.7)" d="M 627.7 1151.6 c -31 -10 -73 -30 -91 -44 c -33 -25 -78 -103 -91 -157 c -8 -32 10 -39 100 -39 l 60 0 l 23 50 c 13 29 43 67 71 91 l 48 41 l -21 39 c -12 21 -25 39 -31 38 c -5 0 -36 -8 -68 -19 z"/>
<path transform="matrix(2,0,0,1.7,-1564.3,-555.6)" d="M 1719.2 1132.5 l -21 -38 l 52 -46 c 33 -29 60 -64 71 -92 l 19 -45 l 60 0 c 66 0 105 8 105 21 c 0 25 -46 125 -71 154 c -30 34 -99 68 -159 79 c -33 5 -36 3 -56 -33 z"/>
<path transform="matrix(2,0,0,1.7,-816.1,-515.4)" d="M 835 990.6 c -20 -20 -47 -55 -58 -77 c -24 -48 -37 -169 -19 -180 c 18 -11 115 21 144 48 c 18 17 27 35 27 55 c 0 17 9 54 20 83 c 11 28 18 53 17 54 c -10 10 -79 54 -85 54 c -4 0 -25 -17 -46 -37 z"/>
<path transform="matrix(2,0,0,1.7,-1368.3,-515.3)" d="M 1515.6 1000.5 l -37 -25 l 19 -54 c 10 -29 19 -67 19 -83 c 0 -20 9 -39 28 -56 c 28 -27 125 -61 142 -50 c 15 9 12 94 -5 152 c -11 36 -29 65 -62 97 c -25 25 -51 46 -57 45 c -6 -1 -27 -12 -47 -26 z"/>
<path transform="matrix(2,0,0,1.7,-1095.2,-489.3)" d="M 1142.3 905 c -9 -21 -18 -68 -21 -105 c -4 -56 -1 -74 18 -110 c 25 -50 68 -98 87 -98 c 21 0 92 98 99 136 c 9 48 -1 130 -20 177 l -16 37 l -66 0 l -65 0 l -16 -37 z"/>
<path transform="matrix(2,0,0,1.7,-686.1,-418.5)" d="M 466.7 632.7 c -30 -6 -29 -15 7 -78 c 76 -133 179 -206 267 -189 c 18 3 33 12 33 19 c 0 7 -23 33 -52 58 c -36 31 -49 49 -45 61 c 4 9 13 16 22 16 c 25 0 115 -90 147 -147 c 31 -55 47 -64 68 -38 c 10 12 8 21 -8 50 c -12 19 -26 53 -32 75 c -15 57 -74 118 -145 152 c -53 25 -70 28 -150 27 c -49 -1 -100 -4 -112 -6 z"/>
<path transform="matrix(2,0,0,1.7,-1494,-421.3)" d="M 1733.8 623.4 c -83 -29 -143 -89 -167 -169 c -7 -21 -20 -50 -30 -65 c -21 -31 -15 -68 11 -68 c 10 0 30 22 46 50 c 50 84 131 158 161 146 c 27 -10 16 -31 -41 -80 c -64 -56 -61 -70 14 -69 c 85 1 150 48 224 162 c 26 40 48 79 48 86 c 0 30 -186 34 -266 7 z"/>
<path transform="matrix(2,0,0,1.7,-1092.8,-392.9)" d="M 1244.1 486.4 c -5 -9 -17 -11 -32 -8 l -25 7 l 3 -112 c 3 -93 6 -114 20 -123 c 14 -8 21 -7 33 5 c 13 12 15 37 13 130 c -2 68 -6 109 -12 101 z"/>
</g>
</svg>
